<svg xmlns="http://www.w3.org/2000/svg" xml:space="preserve" viewBox="0 0 491.5 491.5"><circle cx="158.5" cy="158.5" r="129.8" fill="#27a2db" opacity=".5"/><path fill="#fff" d="M98 234.6A110 110 0 0 1 96.9 79a107 107 0 0 1 32-22 105.7 105.7 0 0 0 20.4 206.8 111.6 111.6 0 0 1-51.1-29.2z" opacity=".5"/><path fill="#3a556a" d="M270.6 46.4A158.5 158.5 0 1 0 255.3 284l14.2 14.2 28.6-28.6-14.2-14.2a158.5 158.5 0 0 0-13.3-208.9zm-20.3 203.9A129.8 129.8 0 1 1 66.8 66.8a129.8 129.8 0 0 1 183.5 183.5z"/><path fill="#e56353" d="m305.8 258.9-47 47a6.8 6.8 0 0 0 0 9.6l174.4 174.3c12.1 12.2 68.8-44.5 56.6-56.6L315.5 258.9a6.8 6.8 0 0 0-9.7 0z"/><path fill="#ebf0f3" d="M482.5 426 426 482.6l-9.6-9.6 56.6-56.7zM333.8 277.2l-56.6 56.6-9.7-9.6 56.7-56.6z"/></svg>