<svg xmlns="http://www.w3.org/2000/svg" xml:space="preserve" viewBox="0 0 780 500"><path fill="#000C9D" d="M40 0h700c22 0 40 18 40 40v420c0 22-18 40-40 40H40c-22 0-40-18-40-40V40C0 18 18 0 40 0z"/><path fill="#9D9400" d="M66.9 106.9h110.3v99.7H66.9z"/><path fill="#fff" d="M94.7 284.1v-3.7h-5.1V269h-4.2l-.4 11.3H73.6l10.4-25-4-1.7-11.6 27.1v3.4h16.4v9.7h4.7v-9.7h5.1zm19.6-30.5c-4 0-7.9 1.3-11.2 4.6l2.6 2.9c2.6-2.5 5-3.7 8.4-3.7 4.2 0 7.5 2.4 7.5 6.7 0 4.8-3.7 7-7.5 7h-2.4l-.6 3.8h3.4c4.6 0 8.2 1.8 8.2 7.5 0 5-3.3 8.1-8.9 8.1-3.2 0-6.5-1.3-8.8-4l-3.2 2.7c3 3.7 7.7 5.2 12.2 5.2 8.1 0 13.7-5.1 13.7-12 0-6.1-4.4-9.3-9-9.7a9.5 9.5 0 0 0 7.7-9.2c0-5.4-4.7-10-12.1-10zm34.5 0c-5.4 0-9 1.9-12.1 5.7l3.3 2.5c2.6-3 4.7-4.2 8.6-4.2 4.4 0 7 2.7 7 7.2 0 6.5-3.1 10.8-18 25.1v4H161l.6-4.2H143c13-11.9 17.7-17.8 17.7-25 0-6.4-4.4-11.1-12-11.1zm48.7 36.3h-8.3v-35.6H185l-11.7 7.2 2 3.4 9.2-5.5V290h-9.8v4h22.8v-4zm69.6-5.8v-3.7H262V269h-4.2l-.4 11.3h-11.5l10.6-25.1-4-1.7-11.6 27.1v3.4h16.4v9.7h4.7V284h5.1zm19.6-30.5c-4 0-7.9 1.3-11.2 4.6l2.6 2.9c2.6-2.5 5-3.7 8.4-3.7 4.2 0 7.5 2.4 7.5 6.7 0 4.8-3.7 7-7.5 7H284l-.6 3.8h3.4c4.6 0 8.2 1.8 8.2 7.5 0 5-3.3 8.1-8.9 8.1-3.2 0-6.5-1.3-8.8-4l-3.2 2.7c3 3.7 7.7 5.2 12.1 5.2 8.2 0 13.8-5.1 13.8-12 0-6.1-4.4-9.3-9-9.7a9.5 9.5 0 0 0 7.7-9.2c0-5.4-4.7-10-12.1-10zm34.5 0c-5.4 0-9 1.9-12.1 5.7l3.3 2.5c2.6-3 4.7-4.2 8.6-4.2 4.4 0 7 2.7 7 7.2 0 6.5-3.2 10.8-18.1 25.1v4h23.5l.6-4.2h-18.6c13-11.9 17.7-17.8 17.7-25 0-6.4-4.5-11.1-12-11.1zm48.7 36.3h-8.3v-35.6h-4.2l-11.7 7.2 2 3.4 9.2-5.5V290H347v4h22.8v-4zm69.6-5.8v-3.7h-5.1V269h-4.2l-.4 11.3h-11.5l10.6-25.1-4-1.7-11.6 27.1v3.4h16.4v9.7h4.7V284h5zm19.6-30.5c-4 0-7.9 1.3-11.2 4.6l2.5 2.9c2.7-2.5 5-3.7 8.4-3.7 4.2 0 7.6 2.4 7.6 6.7 0 4.8-3.8 7-7.6 7h-2.3l-.6 3.8h3.3c4.7 0 8.3 1.8 8.3 7.5 0 5-3.3 8.1-8.9 8.1-3.2 0-6.5-1.3-8.8-4l-3.2 2.7c3 3.7 7.7 5.2 12.1 5.2 8.2 0 13.8-5.1 13.8-12 0-6.1-4.4-9.3-9-9.7a9.5 9.5 0 0 0 7.7-9.2c0-5.4-4.7-10-12.1-10zm34.5 0c-5.4 0-9 1.9-12.1 5.7l3.3 2.5c2.5-3 4.7-4.2 8.6-4.2 4.4 0 7 2.7 7 7.2 0 6.5-3.2 10.8-18.1 25.1v4h23.5l.6-4.2h-18.7c13.1-11.9 17.8-17.8 17.8-25 0-6.4-4.5-11.1-12-11.1zm48.7 36.3H534v-35.6h-4.2l-11.7 7.2 2 3.4 9.1-5.5V290h-9.7v4h22.8v-4zm69.6-5.8v-3.7h-5.1V269h-4.2l-.4 11.3h-11.5l10.6-25.1-4-1.7-11.6 27.1v3.4H602v9.7h4.7V284h5zm19.6-30.5c-4 0-8 1.3-11.3 4.6l2.6 2.9c2.7-2.5 5-3.7 8.4-3.7 4.2 0 7.6 2.4 7.6 6.7 0 4.8-3.8 7-7.6 7H629l-.6 3.8h3.3c4.7 0 8.3 1.8 8.3 7.5 0 5-3.3 8.1-8.9 8.1-3.2 0-6.5-1.3-8.8-4l-3.2 2.7c3 3.7 7.7 5.2 12.1 5.2 8.2 0 13.8-5.1 13.8-12 0-6.1-4.4-9.3-9-9.7a9.5 9.5 0 0 0 7.7-9.2c0-5.4-4.7-10-12.1-10zm34.4 0c-5.3 0-8.9 1.9-12 5.7l3.3 2.5c2.5-3 4.7-4.2 8.6-4.2 4.4 0 7 2.7 7 7.2 0 6.5-3.2 10.8-18.1 25.1v4h23.5l.6-4.2H660c13-11.9 17.7-17.8 17.7-25 0-6.4-4.4-11.1-11.9-11.1zm48.8 36.3h-8.3v-35.6h-4.2l-11.7 7.2 2 3.4 9.1-5.5V290h-9.8v4h22.9v-4z"/><path fill="#fff" fill-opacity=".8" d="M72.2 389.2h6.5V367l-7 1.4v-3.6l7-1.4h3.9v25.8H89v3.3H72.2v-3.3zm25.5 0h6.4V367l-7 1.4v-3.6l7-1.4h4v25.8h6.4v3.3H97.7v-3.3zm40.9 0h13.8v3.3h-18.5v-3.3a752.7 752.7 0 0 1 11-11.3c1.2-1.4 2.1-2.6 2.6-3.6s.8-2 .8-2.9a5 5 0 0 0-1.7-3.8 6 6 0 0 0-4.2-1.4 16.3 16.3 0 0 0-8.3 2.6v-4a20.8 20.8 0 0 1 8.2-2c3 0 5.4.8 7.2 2.3a7.5 7.5 0 0 1 2.7 6c0 1.3-.2 2.4-.7 3.5-.4 1-1.2 2.3-2.4 3.8l-3.1 3.2-7.4 7.6zm34-12.4a7.1 7.1 0 0 1 6 7.2 8 8 0 0 1-3 6.7c-1.9 1.6-4.7 2.4-8.4 2.4a26.8 26.8 0 0 1-7.8-1.4v-3.9c1.1.7 2.3 1.2 3.6 1.5 1.3.3 2.7.5 4.1.5 2.5 0 4.4-.5 5.7-1.5a5 5 0 0 0 2-4.3 5 5 0 0 0-1.9-4 7.7 7.7 0 0 0-5-1.4h-3.4v-3.3h3.5c2 0 3.5-.4 4.5-1.1a4 4 0 0 0 1.5-3.4 4 4 0 0 0-1.6-3.4c-1-.8-2.5-1.2-4.5-1.2-1.1 0-2.3 0-3.5.3-1.2.2-2.6.6-4 1.1v-3.5a38.2 38.2 0 0 1 7.8-1.3c3 0 5.4.7 7.1 2a6.6 6.6 0 0 1 2.7 5.6c0 1.6-.5 3-1.4 4.1a7.3 7.3 0 0 1-4 2.3zm26.3-13.4h15.5v3.3h-11.9v7.1a10.3 10.3 0 0 1 3.5-.6c3.2 0 5.8 1 7.7 2.7s2.9 4.2 2.9 7.3c0 3.1-1 5.5-3 7.3a12 12 0 0 1-8.2 2.6 23.3 23.3 0 0 1-7.7-1.3v-4a15.4 15.4 0 0 0 7.6 2c2.2 0 4-.6 5.3-1.8s2-2.8 2-4.8-.6-3.7-2-4.9-3-1.7-5.3-1.7a14.5 14.5 0 0 0-6.4 1.4v-14.6zm33.9 15.3c-1.9 0-3.4.5-4.4 1.5-1.1 1-1.7 2.4-1.7 4.1s.6 3.2 1.7 4.2c1 1 2.5 1.5 4.4 1.5 1.9 0 3.3-.5 4.4-1.5 1.1-1 1.6-2.4 1.6-4.2 0-1.7-.5-3.1-1.6-4.1-1-1-2.5-1.5-4.4-1.5zm-4-1.7a6.5 6.5 0 0 1-5.4-6.6c0-2.3.9-4.2 2.5-5.5 1.7-1.4 4-2 6.9-2 2.9 0 5.2.6 6.8 2a6.8 6.8 0 0 1 2.5 5.5c0 1.7-.5 3-1.4 4.2a7 7 0 0 1-4 2.4 7.2 7.2 0 0 1 6 7.3c0 2.8-.8 5-2.5 6.5s-4.2 2.3-7.4 2.3-5.7-.8-7.4-2.3c-1.8-1.5-2.6-3.7-2.6-6.5a7.2 7.2 0 0 1 6-7.3zm-1.4-6.2c0 1.5.5 2.7 1.4 3.5 1 .8 2.3 1.3 4 1.3 1.7 0 3-.5 4-1.3 1-.9 1.4-2 1.4-3.5s-.5-2.7-1.4-3.6c-1-.8-2.3-1.2-4-1.2-1.7 0-3 .4-4 1.2-1 .9-1.4 2-1.4 3.6zm98 17.4h6.5V366l-7 1.4v-3.6l7-1.4h3.9v25.8h6.4v3.4h-16.8v-3.4zm36.8-12.4a8 8 0 0 1 4.4 2.5c1 1.3 1.6 2.9 1.6 4.8a8 8 0 0 1-3 6.7c-2 1.5-4.8 2.3-8.4 2.3a26.4 26.4 0 0 1-7.8-1.4v-3.8a16.7 16.7 0 0 0 7.7 2c2.5-.1 4.3-.6 5.6-1.6a5 5 0 0 0 2-4.2c0-1.7-.6-3-1.8-4a7.7 7.7 0 0 0-5-1.5H354v-3.3h3.6c2 0 3.4-.3 4.5-1.1a4 4 0 0 0 1.5-3.4 4 4 0 0 0-1.6-3.4c-1-.8-2.6-1.2-4.6-1.2l-3.4.3-4.1 1.1v-3.5a38.6 38.6 0 0 1 7.9-1.2c3 0 5.4.6 7.1 2a6.6 6.6 0 0 1 2.6 5.5c0 1.6-.4 3-1.4 4.1a7.3 7.3 0 0 1-4 2.3zm16.9 12.4h13.8v3.4h-18.5v-3.4a735.2 735.2 0 0 1 11-11.3c1.2-1.4 2.1-2.6 2.6-3.6s.8-2 .8-2.9a5 5 0 0 0-1.7-3.8 6 6 0 0 0-4.2-1.4c-1.3 0-2.6.2-4 .6-1.3.5-2.8 1.1-4.3 2v-4a27.8 27.8 0 0 1 8.2-1.9c3 0 5.4.7 7.2 2.2a7.5 7.5 0 0 1 2.7 6c0 1.3-.2 2.4-.7 3.5-.4 1-1.2 2.3-2.4 3.8l-3.1 3.3a2784 2784 0 0 1-7.4 7.5zm22.8 0h6.4V366l-7 1.4v-3.6l7-1.4h4v25.8h6.4v3.4h-16.8v-3.4zm49.4-12.4c2 .4 3.4 1.3 4.4 2.5a7.1 7.1 0 0 1 1.6 4.8 8 8 0 0 1-3 6.7 13.3 13.3 0 0 1-8.4 2.3 26.4 26.4 0 0 1-7.8-1.4v-3.8a16.8 16.8 0 0 0 7.7 2 10 10 0 0 0 5.7-1.6 5 5 0 0 0 2-4.2 5 5 0 0 0-1.9-4 7.7 7.7 0 0 0-5-1.5h-3.4v-3.3h3.5c2 0 3.5-.3 4.5-1.1a4 4 0 0 0 1.5-3.4 4 4 0 0 0-1.6-3.4c-1-.8-2.5-1.2-4.5-1.2l-3.5.3c-1.2.3-2.6.6-4 1.1v-3.5a38.6 38.6 0 0 1 7.8-1.2c3 0 5.4.6 7.1 2a6.6 6.6 0 0 1 2.7 5.5c0 1.6-.5 3-1.4 4.1a7.3 7.3 0 0 1-4 2.3zm24.4-10-10 15.6h10v-15.6zm-1-3.4h5v19h4v3.3h-4v6.9h-4v-7h-13.2V381l12.1-18.5zm15.7 0h15.4v3.3H494v7.2a10.5 10.5 0 0 1 3.4-.6c3.3 0 5.8.9 7.7 2.6a9.5 9.5 0 0 1 2.9 7.3c0 3.1-1 5.6-3 7.3a12 12 0 0 1-8.2 2.6 23.4 23.4 0 0 1-7.7-1.2v-4a15.4 15.4 0 0 0 7.6 1.9c2.3 0 4-.6 5.4-1.8 1.3-1.2 2-2.8 2-4.8s-.7-3.6-2-4.8a7.7 7.7 0 0 0-5.4-1.8 14.5 14.5 0 0 0-6.3 1.4v-14.6zm25.4 0h15.5v3.3h-11.9v7.2a10.5 10.5 0 0 1 3.5-.6c3.2 0 5.8.9 7.7 2.6a9.5 9.5 0 0 1 2.9 7.3c0 3.1-1 5.6-3 7.3a12 12 0 0 1-8.2 2.6 23.4 23.4 0 0 1-7.7-1.2v-4a15.4 15.4 0 0 0 7.6 1.9c2.2 0 4-.6 5.3-1.8 1.4-1.2 2-2.8 2-4.8s-.6-3.6-2-4.8a7.7 7.7 0 0 0-5.3-1.8 14.5 14.5 0 0 0-6.4 1.4v-14.6z"/></svg>